<svg xmlns="http://www.w3.org/2000/svg"  viewBox="0 0 64 64" width="64px" height="64px"><linearGradient id="rELEI_gAjCGC9kbyI7vM8a" x1="26" x2="26" y1="35.917" y2="40.324" gradientUnits="userSpaceOnUse" spreadMethod="reflect"><stop offset="0" stop-color="#6dc7ff"/><stop offset="1" stop-color="#e6abff"/></linearGradient><path fill="url(#rELEI_gAjCGC9kbyI7vM8a)" d="M32,39c0,0.552-0.448,1-1,1H21c-0.552,0-1-0.448-1-1v-2c0-0.552,0.448-1,1-1h10 c0.552,0,1,0.448,1,1V39z"/><linearGradient id="rELEI_gAjCGC9kbyI7vM8b" x1="32" x2="32" y1="7.833" y2="57.001" gradientUnits="userSpaceOnUse" spreadMethod="reflect"><stop offset="0" stop-color="#1a6dff"/><stop offset="1" stop-color="#c822ff"/></linearGradient><path fill="url(#rELEI_gAjCGC9kbyI7vM8b)" d="M57.304,31.099C56.716,30.4,55.848,30,54.92,30H53v-3c0-1.654-1.5-3-3-3V14 c0-1.103-0.897-2-2-2H33.618l-1.447-2.894C31.831,8.424,31.146,8,30.382,8h-6.764H23h-7c-1.103,0-2,0.897-2,2v36H6v5 c0,2.757,2.243,5,5,5h34c2.757,0,5-2.243,5-5v-7h1.765c2.532,0,4.673-1.753,5.092-4.169l1.1-6.334 C58.105,32.643,57.868,31.769,57.304,31.099z M51,27v3h-6v-3c0-0.552,0.449-1,1-1h4C50.552,26,51,26.448,51,27z M48,16h-2v-2h2V16z M30.382,10l1,2h-5.765l-1-2H30.382z M22.382,10l1.447,2.895C24.171,13.576,24.857,14,25.619,14H44v2H16v-6H22.382z M11,54 c-1.654,0-3-1.345-3-3v-3h32v3c0,1.125,0.373,2,1.002,3H11z M48,51c0,1.654-1.346,3-3,3c-1.654,0-3-1.346-3-3v-5H16V18h32v6h-2 c-1.654,0-3,1.346-3,3v3h-1.92c-0.928,0-1.796,0.4-2.384,1.099c-0.563,0.67-0.801,1.544-0.652,2.397l1.1,6.335 C39.563,42.247,41.703,44,44.236,44H48V51z M55.986,33.154l-1.1,6.335C54.634,40.944,53.322,42,51.765,42h-7.529 c-1.557,0-2.869-1.056-3.121-2.511l-1.1-6.336c-0.064-0.371,0.105-0.64,0.213-0.768C40.434,32.141,40.744,32,41.08,32h13.84 c0.336,0,0.646,0.141,0.853,0.386C55.88,32.514,56.05,32.782,55.986,33.154z"/><linearGradient id="rELEI_gAjCGC9kbyI7vM8c" x1="30" x2="30" y1="7.833" y2="57.001" gradientUnits="userSpaceOnUse" spreadMethod="reflect"><stop offset="0" stop-color="#1a6dff"/><stop offset="1" stop-color="#c822ff"/></linearGradient><path fill="url(#rELEI_gAjCGC9kbyI7vM8c)" d="M20 22H40V24H20z"/><linearGradient id="rELEI_gAjCGC9kbyI7vM8d" x1="28" x2="28" y1="7.833" y2="57.001" gradientUnits="userSpaceOnUse" spreadMethod="reflect"><stop offset="0" stop-color="#1a6dff"/><stop offset="1" stop-color="#c822ff"/></linearGradient><path fill="url(#rELEI_gAjCGC9kbyI7vM8d)" d="M20 26H36V28H20z"/><linearGradient id="rELEI_gAjCGC9kbyI7vM8e" x1="26" x2="26" y1="7.833" y2="57.001" gradientUnits="userSpaceOnUse" spreadMethod="reflect"><stop offset="0" stop-color="#1a6dff"/><stop offset="1" stop-color="#c822ff"/></linearGradient><path fill="url(#rELEI_gAjCGC9kbyI7vM8e)" d="M20 30H32V32H20z"/><linearGradient id="rELEI_gAjCGC9kbyI7vM8f" x1="48" x2="48" y1="7.833" y2="57.001" gradientUnits="userSpaceOnUse" spreadMethod="reflect"><stop offset="0" stop-color="#1a6dff"/><stop offset="1" stop-color="#c822ff"/></linearGradient><path fill="url(#rELEI_gAjCGC9kbyI7vM8f)" d="M47 34H49V40H47z"/><linearGradient id="rELEI_gAjCGC9kbyI7vM8g" x1="52" x2="52" y1="7.833" y2="57.001" gradientUnits="userSpaceOnUse" spreadMethod="reflect"><stop offset="0" stop-color="#1a6dff"/><stop offset="1" stop-color="#c822ff"/></linearGradient><path fill="url(#rELEI_gAjCGC9kbyI7vM8g)" d="M51 34H53V38H51z"/><linearGradient id="rELEI_gAjCGC9kbyI7vM8h" x1="44" x2="44" y1="7.833" y2="57.001" gradientUnits="userSpaceOnUse" spreadMethod="reflect"><stop offset="0" stop-color="#1a6dff"/><stop offset="1" stop-color="#c822ff"/></linearGradient><path fill="url(#rELEI_gAjCGC9kbyI7vM8h)" d="M43 34H45V38H43z"/></svg>